<svg width="256" height="256" viewBox="0 0 256 256" fill="none" xmlns="http://www.w3.org/2000/svg">
<rect width="256" height="256" rx="128" fill="#3C65F7"/>
<path d="M40.125 160H19.9261V94.5455H41.0199C47.3693 94.5455 52.8026 95.8558 57.3196 98.4766C61.8366 101.076 65.299 104.815 67.7067 109.695C70.1143 114.553 71.3182 120.369 71.3182 127.145C71.3182 133.963 70.1037 139.833 67.6747 144.755C65.2457 149.656 61.7088 153.427 57.0639 156.069C52.419 158.69 46.7727 160 40.125 160ZM27.8523 152.969H39.6136C45.0256 152.969 49.5107 151.925 53.0689 149.837C56.6271 147.749 59.2798 144.776 61.027 140.92C62.7741 137.063 63.6477 132.472 63.6477 127.145C63.6477 121.861 62.7848 117.312 61.0589 113.498C59.3331 109.663 56.755 106.722 53.3246 104.677C49.8942 102.61 45.6222 101.577 40.5085 101.577H27.8523V152.969ZM84.6136 94.5455H94.0739L116.318 148.878H117.085L139.33 94.5455H148.79V160H141.375V110.27H140.736L120.281 160H113.122L92.6676 110.27H92.0284V160H84.6136V94.5455ZM176.571 160L158.673 94.5455H166.727L180.406 147.855H181.046L194.98 94.5455H203.929L217.864 147.855H218.503L232.182 94.5455H240.236L222.338 160H214.156L199.71 107.841H199.199L184.753 160H176.571Z" fill="white"/>
</svg>
